<svg width="70" height="66" viewBox="0 0 70 66" fill="none" xmlns="http://www.w3.org/2000/svg">
<mask id="mask0" mask-type="alpha" maskUnits="userSpaceOnUse" x="0" y="0" width="70" height="66">
<rect y="0.470947" width="70" height="65" fill="#C4C4C4"/>
</mask>
<g mask="url(#mask0)">
<ellipse cx="35.1436" cy="33.7519" rx="22.4435" ry="22.4286" fill="#E6F3F4"/>
<path d="M37.5385 52.2131L36.1626 55.6143H38.5523L42.68 54.5288L47.0973 52.2131L52.3836 47.5816L56.6561 39.8384V36.9437L56.0768 35.2792L54.4112 33.8319H52.7457L51.4422 34.845L49.8491 36.9437L48.6904 37.3779L47.0973 37.8121V39.8384L46.0835 41.2133L42.68 43.7462V44.9764L44.4903 46.0619L45.2869 48.5947V50.0421L43.8386 50.4039L40.1454 50.0421L37.5385 52.2131Z" fill="#C1E0E3"/>
<path d="M17.6243 41.6474L15.5967 43.746L18.4209 48.5222L21.2451 50.5485L23.6348 49.0288L25.7348 49.3906L27.2555 49.0288V47.292L25.7348 45.4104L26.0245 43.746L26.6038 41.2132L25.7348 39.6211H24.2141L22.6934 40.6342L21.2451 41.2132L18.7829 40.2724L17.6243 41.6474Z" fill="#FFFAE6"/>
<path d="M33.1935 13.5691L32.4694 12.1942L33.1935 11.181H35.0039L40.1454 11.76L47.2421 14.8717L43.8386 19.2137L40.1454 20.0098L38.4798 20.7334L38.9143 22.7597L40.1454 24.4965H41.8109L42.4627 26.4504L39.3488 29.9964V32.9634L37.1039 34.266L36.1625 37.3055L33.1935 38.8975L30.4418 35.2792L31.1659 32.3845L29.2831 28.7662L28.1245 27.4636L25.2279 27.8254L23.5623 26.4504L22.6209 22.7597L24.2865 19.2137L27.7624 17.8388L30.4418 18.6348L34.5694 19.2137L36.5246 17.1151L35.7281 14.4375L33.1935 13.5691Z" fill="#F4EBF4"/>
<path d="M14.9456 24.1973C14.8336 24.1972 14.7234 24.1686 14.6256 24.114C14.5277 24.0594 14.4454 23.9808 14.3866 23.8855C14.3277 23.7903 14.2941 23.6816 14.2891 23.5697C14.284 23.4578 14.3077 23.3465 14.3577 23.2464C14.651 22.6615 14.9766 22.076 15.3264 21.5068C15.4226 21.3695 15.5676 21.2741 15.7319 21.2402C15.8961 21.2062 16.0672 21.2363 16.21 21.3242C16.3528 21.4121 16.4566 21.5512 16.5002 21.713C16.5437 21.8749 16.5238 22.0473 16.4443 22.1949C16.1155 22.7318 15.8078 23.2832 15.5316 23.8339C15.4772 23.9427 15.3936 24.0343 15.2901 24.0985C15.1867 24.1627 15.0674 24.1969 14.9456 24.1973Z" fill="#333333"/>
<path d="M34.9803 56.4709C30.7574 56.4693 26.6162 55.3072 23.0098 53.1117C19.4033 50.9163 16.4705 47.772 14.532 44.0228C13.0223 41.1184 12.1588 37.9221 12.0008 34.6529C11.9965 34.5667 12.0092 34.4805 12.0382 34.3992C12.0672 34.3179 12.112 34.2431 12.1699 34.179C12.2279 34.115 12.2979 34.063 12.376 34.0261C12.454 33.9891 12.5386 33.9679 12.6249 33.9636C12.7985 33.9569 12.9679 34.0184 13.0967 34.135C13.2255 34.2515 13.3035 34.4139 13.3141 34.5872C13.472 37.677 14.2904 40.6971 15.7142 43.4443C17.1381 46.1915 19.1342 48.6021 21.5684 50.5137C25.6387 53.7156 30.7215 55.3558 35.897 55.1376L36.2639 55.1178C40.8253 54.8474 45.1848 53.145 48.7212 50.2532C52.2576 47.3615 54.7903 43.4281 55.9585 39.0135C57.1267 34.5989 56.8706 29.9285 55.2268 25.6678C53.583 21.4072 50.6354 17.7738 46.8041 15.2855C43.0297 12.8198 38.5756 11.6015 34.0708 11.8025C33.721 11.8157 33.3744 11.8413 33.0338 11.8682C27.7938 12.3392 22.9041 14.6983 19.2759 18.5056C19.2169 18.5702 19.1455 18.6223 19.0661 18.659C18.9866 18.6956 18.9006 18.716 18.8131 18.719C18.7256 18.722 18.6384 18.7075 18.5566 18.6764C18.4748 18.6453 18.4001 18.5982 18.3367 18.5378C18.2734 18.4775 18.2227 18.4051 18.1877 18.3249C18.1528 18.2447 18.1342 18.1583 18.133 18.0709C18.1319 17.9834 18.1482 17.8966 18.1811 17.8155C18.2139 17.7344 18.2627 17.6607 18.3244 17.5987C22.174 13.5584 27.363 11.0553 32.9233 10.5565C33.2896 10.5289 33.6526 10.502 34.0162 10.4908C37.4607 10.3477 40.8934 10.9794 44.061 12.3391C47.2286 13.6988 50.0502 15.7519 52.3178 18.347C54.5853 20.942 56.2409 24.0127 57.1623 27.3325C58.0837 30.6523 58.2474 34.1365 57.6415 37.528C56.7439 42.6184 54.1505 47.256 50.2825 50.6875C46.4145 54.119 41.4992 56.1428 36.335 56.4302L35.9568 56.4506C35.6333 56.4644 35.3058 56.4709 34.9803 56.4709Z" fill="#333333"/>
<path d="M12.9281 30.4405C12.8931 30.4406 12.8581 30.4377 12.8235 30.4319C12.6514 30.4043 12.4973 30.3096 12.3951 30.1685C12.2929 30.0274 12.2509 29.8515 12.2784 29.6795C12.386 29.0058 12.5292 28.3383 12.7071 27.6797C12.7279 27.5945 12.7655 27.5143 12.8177 27.4438C12.87 27.3733 12.9358 27.314 13.0114 27.2694C13.0869 27.2247 13.1707 27.1956 13.2576 27.1838C13.3446 27.172 13.4331 27.1777 13.5178 27.2006C13.6025 27.2236 13.6818 27.2632 13.751 27.3172C13.8201 27.3712 13.8778 27.4385 13.9205 27.5151C13.9633 27.5917 13.9902 27.6761 13.9998 27.7633C14.0094 27.8505 14.0014 27.9387 13.9763 28.0228C13.8106 28.6368 13.6772 29.2592 13.5765 29.8872C13.5518 30.0413 13.473 30.1817 13.3542 30.2831C13.2354 30.3845 13.0843 30.4403 12.9281 30.4405Z" fill="#333333"/>
<path d="M33.5448 39.4594C32.2177 39.4594 31.011 38.2384 30.0364 35.8975C29.8683 35.4723 29.7978 35.0148 29.8301 34.5587C29.8624 34.1026 29.9968 33.6596 30.2232 33.2623C30.4504 32.9208 30.5345 32.5038 30.4574 32.101C30.3803 31.6982 30.1482 31.3417 29.8109 31.1081C29.3392 30.6805 29.0102 30.1185 28.8685 29.498C28.8488 29.4146 28.8271 29.3456 28.806 29.2766C28.6676 28.9109 28.4048 28.6055 28.0637 28.414C27.7226 28.2225 27.325 28.157 26.9404 28.229C26.2977 28.3457 25.6429 28.3814 24.9913 28.3355C24.4386 28.28 23.9119 28.074 23.4682 27.7401C23.0246 27.4061 22.6812 26.957 22.4752 26.4415C21.8614 24.8773 21.7826 23.1541 22.251 21.5404C22.5031 20.6462 22.9509 19.8191 23.5621 19.1191C24.1733 18.4191 24.9326 17.8636 25.785 17.4929C26.6667 17.1225 27.6305 16.9905 28.5794 17.1101C29.5284 17.2297 30.4291 17.5967 31.1912 18.1743C31.448 18.3686 31.7411 18.5093 32.0533 18.5884C32.8953 18.8239 33.7915 18.7759 34.6035 18.4517C35.0082 18.2667 35.3483 17.965 35.5801 17.5853C35.8119 17.2056 35.9248 16.7654 35.9043 16.3211C35.8884 15.9402 35.7562 15.5733 35.5255 15.2697C35.3184 15.0286 35.0645 14.8321 34.7792 14.6921C34.4939 14.552 34.1831 14.4713 33.8657 14.4548C33.4426 14.4486 33.0271 14.3409 32.6543 14.1409C32.2815 13.9409 31.9621 13.6544 31.7232 13.3054L31.6462 13.1634V13.0005C31.6564 12.1967 31.9471 11.4217 32.4683 10.8094L33.5073 11.6151C33.2272 11.9426 33.0419 12.3402 32.9713 12.7652C33.2638 12.9984 33.6233 13.1322 33.9972 13.147C34.4961 13.1765 34.9832 13.3102 35.4272 13.5394C35.8712 13.7686 36.2622 14.0883 36.575 14.4778C36.9657 14.9909 37.1902 15.6112 37.2182 16.2554C37.2506 16.9644 37.0699 17.6668 36.6993 18.2722C36.3287 18.8776 35.7852 19.3583 35.1388 19.6523C34.0668 20.0958 32.878 20.172 31.758 19.8692C31.2721 19.7508 30.8153 19.535 30.4152 19.235C29.8379 18.7875 29.1514 18.5024 28.4268 18.4092C27.7022 18.3159 26.9659 18.418 26.294 18.7047C25.6226 18.9988 25.0251 19.4384 24.5447 19.9917C24.0643 20.545 23.713 21.1981 23.5162 21.9038C23.1208 23.2397 23.1854 24.6696 23.6997 25.9644C23.815 26.2539 24.0076 26.5063 24.2564 26.6941C24.5052 26.8819 24.8007 26.998 25.1109 27.0297C25.6489 27.0655 26.1892 27.0344 26.7194 26.937C27.4144 26.8141 28.1305 26.9406 28.7411 27.2943C29.3517 27.648 29.8175 28.206 30.0561 28.8698C30.0936 28.9907 30.1219 29.0899 30.1469 29.1892C30.2272 29.5455 30.4123 29.8698 30.6782 30.1204C31.2358 30.5549 31.6148 31.1784 31.7437 31.8732C31.8726 32.5679 31.7425 33.2858 31.3779 33.8912C31.2444 34.1154 31.1636 34.367 31.1415 34.627C31.1194 34.887 31.1566 35.1486 31.2504 35.3922C32.0073 37.2099 32.9194 38.2285 33.6638 38.1372C33.9466 38.0491 36.0634 37.3374 36.1351 35.657C36.1074 35.0094 36.3212 34.3745 36.7351 33.8753C37.149 33.3762 37.7336 33.0484 38.3755 32.9554C38.5828 32.8719 38.7582 32.7249 38.8766 32.5355C38.916 32.439 38.916 32.3309 38.8766 32.2345C38.493 31.5637 38.3717 30.7747 38.5362 30.0198C38.7006 29.2649 39.1391 28.5976 39.767 28.1469L41.6176 26.4205C41.703 26.3457 41.7653 26.2482 41.7971 26.1392C41.7922 25.7026 41.6171 25.2851 41.3091 24.9754H40.6193C40.1958 24.9761 39.7837 24.8386 39.4455 24.5838C39.1073 24.329 38.8616 23.9709 38.7458 23.5638C38.6507 23.2217 38.4879 22.9022 38.267 22.624C38.0189 22.3334 37.8608 21.9768 37.8122 21.5978C37.7636 21.2189 37.8266 20.834 37.9935 20.4902C38.1514 20.1613 38.3999 19.8843 38.7099 19.6916C39.0198 19.499 39.3784 19.3987 39.7434 19.4026C41.2559 19.3599 43.0972 18.9616 43.355 18.4582L43.4286 18.3163L43.5601 18.223C43.5831 18.2065 45.8854 16.5492 46.5371 14.5343L47.7866 14.9391C47.0829 17.1117 44.9589 18.8164 44.4328 19.2107C43.5345 20.5448 40.4319 20.6992 39.7993 20.7169H39.7315C39.6169 20.7139 39.5039 20.7442 39.4062 20.8042C39.3084 20.8641 39.2303 20.9512 39.1811 21.0547C39.1249 21.1712 39.1037 21.3016 39.1202 21.4299C39.1367 21.5582 39.19 21.679 39.2738 21.7776C39.6115 22.1947 39.8611 22.6757 40.0077 23.1918C40.0447 23.3258 40.1245 23.444 40.2349 23.5284C40.3453 23.6129 40.4803 23.659 40.6193 23.6597H41.369C41.6075 23.6797 41.838 23.7555 42.0417 23.8811C42.2454 24.0067 42.4167 24.1785 42.5415 24.3826C42.9823 24.9833 43.1711 25.7321 43.0676 26.4698C42.9735 26.8206 42.7801 27.1369 42.5106 27.3806L40.639 29.1267C39.212 30.3333 39.9867 31.53 40.0209 31.5806L40.0866 31.712C40.1776 31.9313 40.2228 32.1668 40.2194 32.4041C40.216 32.6414 40.1641 32.8755 40.0669 33.0921C39.7863 33.6149 39.3224 34.0158 38.7642 34.2178L38.6327 34.25C38.2907 34.2871 37.9764 34.4551 37.7557 34.7188C37.535 34.9824 37.425 35.3213 37.449 35.6642C37.3306 38.4704 34.1162 39.3799 33.9794 39.4173L33.9137 39.4311C33.7917 39.4508 33.6683 39.4603 33.5448 39.4594Z" fill="#333333"/>
<path d="M36.9564 55.8138H35.6412C35.6412 52.455 38.461 50.3238 38.9463 49.9821C40.0642 48.8603 42.986 49.4084 43.8672 49.6062L43.9816 49.641C44.0865 49.664 44.1957 49.6573 44.2969 49.6215C44.3981 49.5857 44.4873 49.5224 44.5544 49.4386C44.6384 49.3379 44.6915 49.2151 44.7071 49.0849C44.7228 48.9548 44.7003 48.8229 44.6425 48.7052C44.4177 48.2185 44.2971 47.6902 44.2887 47.1543C44.285 47.0154 44.236 46.8816 44.1493 46.773C44.0625 46.6645 43.9427 46.5873 43.808 46.553L43.0846 46.3696C42.8579 46.2918 42.6528 46.1615 42.4861 45.9894C42.3193 45.8173 42.1957 45.6082 42.1252 45.3793C41.8458 44.6865 41.8493 43.9119 42.1351 43.2218C42.3101 42.9034 42.5761 42.6444 42.8992 42.4779L45.1416 41.2529C46.8245 40.4387 46.3694 39.0888 46.349 39.0317L46.3161 38.8891C46.2819 38.6537 46.2964 38.4138 46.3586 38.1843C46.4208 37.9547 46.5295 37.7403 46.6778 37.5544C47.0789 37.1167 47.6276 36.8427 48.2186 36.7848L48.2883 36.7789L48.358 36.7868C48.6979 36.8356 49.0436 36.7515 49.323 36.5519C49.6025 36.3524 49.7941 36.0528 49.858 35.7156C50.6636 33.0212 54.0049 32.9397 54.1469 32.9377C56.15 33.1007 57.406 35.6486 57.6441 37.3204L56.3414 37.5057C56.1631 36.2518 55.2195 34.3802 54.1364 34.2534C53.8424 34.2672 51.6145 34.4295 51.1305 36.0442C50.9952 36.678 50.6295 37.2392 50.1042 37.6192C49.5788 37.9991 48.9311 38.1708 48.2863 38.1011C48.0639 38.1307 47.8567 38.2301 47.6945 38.385C47.6307 38.4694 47.6024 38.5752 47.6156 38.6801C47.8227 39.4249 47.7456 40.2201 47.3993 40.9113C47.053 41.6026 46.4622 42.1407 45.7414 42.4213L43.5206 43.6345C43.4228 43.6825 43.3413 43.7584 43.2865 43.8527C43.2313 44.0636 43.2184 44.2833 43.2486 44.4992C43.2789 44.7151 43.3517 44.9229 43.4628 45.1105L44.1309 45.28C44.5415 45.384 44.907 45.6189 45.1719 45.9492C45.4367 46.2795 45.5866 46.6871 45.5987 47.1102C45.6025 47.4633 45.6788 47.8118 45.8229 48.1341C45.9921 48.4786 46.0573 48.8648 46.0105 49.2457C45.9638 49.6266 45.8073 49.9856 45.5599 50.2791C45.3288 50.5621 45.0202 50.7717 44.6718 50.8822C44.3234 50.9927 43.9503 50.9994 43.5982 50.9015L43.518 50.8765C42.0713 50.5617 40.2333 50.5019 39.8643 50.9192L39.7328 51.0316C39.7137 51.0493 36.9564 52.9308 36.9564 55.8138Z" fill="#333333"/>
<path d="M21.1601 51.6874C21.0717 51.6873 20.9842 51.6692 20.903 51.6342C20.7427 51.5659 20.6161 51.4367 20.551 51.2752C20.4859 51.1137 20.4876 50.9329 20.5558 50.7726L20.6873 50.4631C21.0577 49.6118 21.7511 48.9421 22.6152 48.6013C23.4793 48.2605 24.4434 48.2763 25.2958 48.6454C25.5389 48.7468 25.812 48.75 26.0574 48.6541C26.3027 48.5582 26.5013 48.3708 26.611 48.1315C26.6655 48.0048 26.6939 47.8685 26.6945 47.7306C26.6947 47.536 26.6377 47.3457 26.5307 47.1832C26.4236 47.0207 26.2711 46.8932 26.0922 46.8165C25.7516 46.6668 25.462 46.4213 25.2589 46.1097C25.0558 45.7982 24.948 45.4343 24.9486 45.0625C24.9481 44.7995 25.0028 44.5394 25.109 44.2989L26.0481 42.1302C26.1251 41.9584 26.167 41.7729 26.1714 41.5847C26.1758 41.3965 26.1426 41.2093 26.0738 41.034C25.9699 40.7685 25.7895 40.5396 25.5555 40.3765C25.3215 40.2134 25.0443 40.1234 24.759 40.1177C24.4738 40.1121 24.1932 40.1912 23.9529 40.3449C23.7127 40.4987 23.5234 40.7202 23.4091 40.9815C23.2355 41.3677 22.9179 41.671 22.5239 41.8269C22.13 41.9828 21.6907 41.9789 21.2995 41.8161L19.616 41.084C19.4921 41.0296 19.3586 41.0002 19.2232 40.9975C19.0879 40.9948 18.9533 41.0189 18.8273 41.0683C18.7012 41.1177 18.5862 41.1914 18.4887 41.2854C18.3913 41.3793 18.3133 41.4915 18.2594 41.6156C17.9324 42.3662 17.428 43.0262 16.7896 43.5392C16.3532 43.8949 15.8556 44.1684 15.3212 44.3462C15.2389 44.3743 15.1517 44.3859 15.0649 44.3802C14.978 44.3744 14.8931 44.3515 14.8152 44.3127C14.7373 44.274 14.6678 44.2201 14.6109 44.1543C14.5539 44.0886 14.5106 44.0121 14.4835 43.9295C14.4563 43.8468 14.4458 43.7596 14.4526 43.6729C14.4595 43.5862 14.4835 43.5017 14.5232 43.4243C14.563 43.3469 14.6177 43.2781 14.6843 43.2221C14.7508 43.166 14.8278 43.1237 14.9109 43.0975C15.294 42.9682 15.6505 42.7705 15.963 42.514C16.4364 42.1358 16.8106 41.6481 17.0533 41.0932C17.1764 40.8106 17.3541 40.5551 17.5761 40.3413C17.7982 40.1274 18.0603 39.9594 18.3473 39.8469C18.6344 39.7344 18.9409 39.6796 19.2492 39.6857C19.5575 39.6917 19.8616 39.7584 20.1441 39.882L21.8197 40.6108C21.8918 40.6405 21.9727 40.6406 22.0449 40.6112C22.1171 40.5818 22.1748 40.5253 22.2057 40.4538C22.3477 40.1186 22.5549 39.8149 22.8151 39.5602C23.0754 39.3055 23.3836 39.105 23.7219 38.9702C24.0602 38.8353 24.4219 38.7689 24.7861 38.7746C25.1503 38.7804 25.5097 38.8583 25.8436 39.0038C26.1775 39.1493 26.4792 39.3596 26.7312 39.6224C26.9832 39.8851 27.1806 40.1953 27.3119 40.5348C27.4432 40.8743 27.5058 41.2365 27.4961 41.6003C27.4864 41.9642 27.4047 42.3225 27.2555 42.6546L26.3171 44.8233C26.2835 44.8986 26.266 44.98 26.2658 45.0625C26.2662 45.1782 26.2999 45.2914 26.3628 45.3886C26.4258 45.4858 26.5154 45.5628 26.6209 45.6106C27.0348 45.7894 27.3872 46.0855 27.6346 46.4623C27.882 46.839 28.0136 47.2799 28.013 47.7306C28.0133 48.1144 27.918 48.4922 27.7357 48.83C27.5534 49.1677 27.2898 49.4549 26.9687 49.6654C26.6477 49.876 26.2792 50.0035 25.8966 50.0363C25.514 50.069 25.1292 50.0061 24.777 49.8532C24.2452 49.622 23.6434 49.6111 23.1035 49.8227C22.5637 50.0344 22.1299 50.4514 21.8973 50.9823L21.7658 51.2872C21.7153 51.406 21.6309 51.5072 21.5232 51.5784C21.4155 51.6496 21.2892 51.6875 21.1601 51.6874Z" fill="#333333"/>
</g>
</svg>
