<svg width="70" height="65" viewBox="0 0 70 65" fill="none" xmlns="http://www.w3.org/2000/svg">
<mask id="mask0" mask-type="alpha" maskUnits="userSpaceOnUse" x="0" y="0" width="70" height="65">
<rect width="70" height="65" fill="#C4C4C4"/>
</mask>
<g mask="url(#mask0)">
<path d="M39.6014 50.007L51.7272 43.2937L24.6224 18.4546L19.6294 27.8532L14.6364 37.2518L31.7552 53.3637L39.6014 50.007Z" fill="#F4EBF4"/>
<path d="M19.3637 20.2728H17.1818L15.7273 19.5455L14.2728 21.3637L12.8182 24.2728L12.0909 33.0001L17.1818 44.2728L24.4546 51.5455L35.7273 55.5455H42.2727L47 54.091L48.8182 50.091L44.0909 44.2728H40.4546L32.0909 47.5455L27.7273 46.091L20.4546 36.6364L21.5455 33.0001L24.4546 25.7273L19.3637 20.2728Z" fill="#E6F3F4"/>
<path d="M20.8182 21.0001L16.8182 19.5455L12.8182 22.4546L11.7273 32.6364L16.8182 44.6364L24.8182 51.5455V50.091L23.3637 41.0001L20.8182 35.9092L23.3637 30.091L24.8182 25.3637L20.8182 21.0001Z" fill="#C1E0E3"/>
<path d="M23.7428 20.3854L21.6635 18.1958L20.2973 19.5329L22.8672 22.0804L23.7428 20.3854Z" fill="#F4EBF4"/>
<path d="M46.8409 45.9773L48.8863 44.8409L50.3636 46.1591L48.6818 48.1364L47.5454 46.9318L46.8409 45.9773Z" fill="#F4EBF4"/>
<path d="M44.5906 44.0133C43.2373 42.6593 41.1201 42.3578 39.4416 43.278L33.8992 46.3186C32.9988 46.8134 31.8955 46.816 31.0214 46.3277C29.0968 45.2532 27.309 43.8959 25.7067 42.2936C24.1053 40.6925 22.7481 38.9047 21.6723 36.9795C21.184 36.1047 21.1873 35.0017 21.6814 34.101L24.7217 28.5586C25.6428 26.8804 25.3403 24.7625 23.9866 23.4091L20.2992 19.722C18.6094 18.0321 15.8599 18.0321 14.17 19.722L13.4772 20.4152C13.1257 20.766 12.8488 21.1519 12.654 21.5617C8.87833 29.5254 11.7254 40.5706 19.5775 48.4228C25.1075 53.9529 32.221 57 38.7266 57C41.4579 57 44.0829 56.4625 46.4377 55.3465C46.8459 55.1532 47.2321 54.8763 47.5852 54.5236L48.278 53.8304C49.9679 52.1405 49.9679 49.391 48.278 47.7011L44.5906 44.0133ZM47.3391 52.8914L46.6465 53.5846C46.4014 53.8291 46.1401 54.0178 45.8693 54.1462C38.4034 57.6841 27.9788 54.9457 20.5164 47.4839C13.054 40.0214 10.3143 29.5961 13.8539 22.131C13.9833 21.8587 14.172 21.598 14.4158 21.3542L15.109 20.661C15.6949 20.0748 16.4646 19.7823 17.2346 19.7823C18.0043 19.7823 18.7741 20.0748 19.3603 20.661L23.0477 24.3481C23.9866 25.2871 24.1961 26.7558 23.5574 27.9192L20.5168 33.4616C19.7941 34.7799 19.7928 36.3375 20.5129 37.6266C21.6483 39.6589 23.0798 41.5453 24.7677 43.2326C26.4563 44.9212 28.3426 46.353 30.3736 47.4871C31.6621 48.2063 33.219 48.205 34.5379 47.4832L40.0803 44.4426C41.2442 43.8045 42.7127 44.014 43.6516 44.9523L47.3391 48.6401C48.5111 49.8125 48.5111 51.719 47.3391 52.8914Z" fill="#333333"/>
<path fillRule="evenodd" clip-rule="evenodd" d="M51.0742 47.0482C55.8691 43.1135 58.9282 37.1413 58.9282 30.4545C58.9282 18.6055 49.3226 9 37.4736 9C30.5412 9 24.3767 12.288 20.4545 17.3896L51.0742 47.0482Z" fill="#F4EBF4"/>
<path fillRule="evenodd" clip-rule="evenodd" d="M21.207 18.5753C24.8442 15.4581 29.5827 13.5729 34.7647 13.5729C46.2292 13.5729 55.523 22.8002 55.523 34.1826C55.523 38.5096 54.1799 42.5252 51.885 45.8409C55.8207 42.0902 58.2706 36.8143 58.2706 30.9703C58.2706 19.588 48.9768 10.3607 37.5123 10.3607C30.8048 10.3607 24.8403 13.5192 21.0454 18.4199L21.207 18.5753Z" fill="#E4CDE3"/>
<path fillRule="evenodd" clip-rule="evenodd" d="M49.699 45.6466C54.1498 42.0814 57 36.6008 57 30.4545C57 19.7101 48.2899 11 37.5455 11C31.1765 11 25.5223 14.0605 21.9734 18.7912L20.5264 17.3896C24.4485 12.288 30.613 9 37.5455 9C49.3945 9 59 18.6055 59 30.4545C59 37.1413 55.941 43.1135 51.146 47.0482L49.699 45.6466Z" fill="#333333"/>
<ellipse cx="21.0454" cy="17.909" rx="0.727273" ry="0.727273" fill="#333333"/>
<ellipse cx="50.5909" cy="46.5682" rx="0.727272" ry="0.727274" fill="#333333"/>
<rect x="35.1818" y="20.8563" width="1.45454" height="10.7273" rx="0.727272" fill="#333333"/>
<rect width="1.45454" height="2.90909" rx="0.727272" transform="matrix(0.85388 -0.52047 0.520469 0.853881 26.1328 13.746)" fill="#333333"/>
<rect x="35.7729" y="9.91382" width="1.45454" height="2.90909" rx="0.72727" fill="#333333"/>
<rect x="54.5386" y="18.4843" width="1.45454" height="2.90909" rx="0.727272" transform="rotate(49.4147 54.5386 18.4843)" fill="#333333"/>
<rect x="58.2707" y="29.4786" width="1.45455" height="2.90909" rx="0.727274" transform="rotate(90 58.2707 29.4786)" fill="#333333"/>
<rect x="55.5945" y="40.5253" width="1.45455" height="2.90909" rx="0.727273" transform="rotate(127.894 55.5945 40.5253)" fill="#333333"/>
<rect width="1.45455" height="2.90909" rx="0.727273" transform="matrix(0.885881 0.463913 -0.463914 0.88588 46.3242 11.9242)" fill="#333333"/>
<rect x="35.1818" y="31.5836" width="1.45455" height="13.8182" rx="0.727273" transform="rotate(-90 35.1818 31.5836)" fill="#333333"/>
</g>
</svg>
