<svg width="70" height="66" viewBox="0 0 70 66" fill="none" xmlns="http://www.w3.org/2000/svg">
<mask id="mask0" mask-type="alpha" maskUnits="userSpaceOnUse" x="0" y="0" width="70" height="66">
<rect y="0.130615" width="70" height="65" fill="#C4C4C4"/>
</mask>
<g mask="url(#mask0)">
<rect width="9.4003" height="1.41006" rx="0.705032" transform="matrix(-0.707396 0.706818 -0.704544 -0.709661 54.6081 18.1089)" fill="#333333"/>
<rect width="9.40075" height="1.41" rx="0.704998" transform="matrix(0.696923 0.717146 -0.714906 0.69922 16.3085 17.4564)" fill="#333333"/>
<rect x="35.4731" y="16.1284" width="6.84602" height="1.40779" rx="0.703895" transform="rotate(90 35.4731 16.1284)" fill="#333333"/>
<ellipse cx="34.9865" cy="11.9689" rx="0.835628" ry="0.838314" fill="#333333"/>
<mask id="mask1" mask-type="alpha" maskUnits="userSpaceOnUse" x="0" y="33" width="27" height="26">
<rect x="0.495056" y="33.3311" width="26.2787" height="25.0365" fill="#C4C4C4"/>
</mask>
<g mask="url(#mask1)">
<path d="M13.6964 37.4386L12.664 37.9201L10.9746 42.9274H5.7189L5.24963 44.3718L9.473 47.6458L7.87751 52.6531L8.90989 53.7123L13.6964 50.6309L18.2013 53.7123L18.8583 52.6531L17.3566 47.6458L20.6415 45.0458L21.6738 43.794L20.6415 42.9274H15.855L14.8226 39.0756L13.6964 37.4386Z" fill="#F4EBF4"/>
<path d="M13.8841 50.9199V37.9202L15.855 42.9275H20.6415L21.6739 43.6015L21.1107 44.8534L17.1689 47.8385L18.7644 53.231L17.6382 53.8087L13.8841 50.9199Z" fill="#E4CDE3"/>
<path d="M9.07204 54.1306C8.79605 54.1306 8.52007 54.0392 8.27914 53.8561C7.79672 53.4896 7.60432 52.8695 7.78908 52.2764L9.16697 47.8525L5.56226 45.1296C5.07866 44.7643 4.88475 44.1446 5.06821 43.5508C5.25168 42.957 5.75563 42.5733 6.35211 42.5733H10.7954L12.151 38.1624C12.3336 37.5682 12.8372 37.1836 13.4339 37.1829H13.4357C14.0316 37.1829 14.5352 37.5659 14.7191 38.1592L16.0869 42.5733H16.5686C16.7669 42.5733 16.9275 42.7414 16.9275 42.9488C16.9275 43.1561 16.7669 43.3243 16.5686 43.3243H15.826C15.6704 43.3243 15.5325 43.2194 15.4845 43.0646L14.0363 38.3908C13.9319 38.0538 13.6576 37.9338 13.4355 37.9338C13.4353 37.9338 13.435 37.9338 13.4348 37.9338C13.2125 37.9341 12.9381 38.0547 12.8343 38.3923L11.3986 43.0637C11.3509 43.219 11.2129 43.3243 11.057 43.3243H6.35211C6.01328 43.3243 5.81952 43.5606 5.75118 43.7818C5.68285 44.003 5.70772 44.3132 5.98242 44.5208L9.79937 47.404C9.92585 47.4995 9.97885 47.6695 9.93051 47.8247L8.47151 52.5091C8.36657 52.8461 8.52118 53.112 8.70091 53.2485C8.88061 53.385 9.1702 53.4565 9.44389 53.2479L13.2499 50.3466C13.3757 50.2507 13.5463 50.2505 13.6722 50.3464L17.4648 53.2304C17.7389 53.4388 18.0284 53.3668 18.208 53.2299C18.3876 53.093 18.5418 52.8268 18.4362 52.4899L16.9747 47.829C16.9261 47.6739 16.9787 47.5037 17.105 47.4079L20.9121 44.5199C21.1861 44.312 21.2106 44.002 21.1421 43.7811C21.0736 43.5602 20.8799 43.3242 20.5414 43.3242H19.7987C19.6005 43.3242 19.4398 43.1561 19.4398 42.9488C19.4398 42.7414 19.6005 42.5733 19.7987 42.5733H20.5414C21.1372 42.5733 21.641 42.9564 21.8249 43.5494C22.0087 44.1424 21.8158 44.7619 21.3334 45.1279L17.7383 47.8551L19.1182 52.2558C19.3042 52.8488 19.1128 53.4694 18.6307 53.8369C18.1487 54.2043 17.5254 54.2047 17.0428 53.8378L13.4615 51.1144L9.86659 53.8547C9.62535 54.0387 9.34871 54.1306 9.07204 54.1306Z" fill="#333333"/>
</g>
<mask id="mask2" mask-type="alpha" maskUnits="userSpaceOnUse" x="42" y="33" width="27" height="26">
<rect x="42.6016" y="33.3311" width="26.2787" height="25.0365" fill="#C4C4C4"/>
</mask>
<g mask="url(#mask2)">
<path d="M55.8029 37.4386L54.7706 37.9201L53.0812 42.9274H47.8255L47.3562 44.3718L51.5796 47.6458L49.9841 52.6531L51.0165 53.7123L55.8029 50.6309L60.3079 53.7123L60.9648 52.6531L59.4632 47.6458L62.748 45.0458L63.7804 43.794L62.748 42.9274H57.9616L56.9292 39.0756L55.8029 37.4386Z" fill="#E6F3F4"/>
<path d="M55.9907 50.9199V37.9202L57.9616 42.9275H62.7481L63.7804 43.6015L63.2173 44.8534L59.2755 47.8385L60.871 53.231L59.7448 53.8087L55.9907 50.9199Z" fill="#C1E0E3"/>
<path d="M51.1786 54.1306C50.9026 54.1306 50.6266 54.0392 50.3857 53.8561C49.9033 53.4896 49.7109 52.8695 49.8956 52.2764L51.2735 47.8525L47.6688 45.1296C47.1852 44.7643 46.9913 44.1446 47.1748 43.5508C47.3582 42.957 47.8622 42.5733 48.4587 42.5733H52.9019L54.2575 38.1624C54.4402 37.5682 54.9438 37.1836 55.5405 37.1829H55.5422C56.1381 37.1829 56.6418 37.5659 56.8257 38.1592L58.1935 42.5733H58.6752C58.8734 42.5733 59.0341 42.7414 59.0341 42.9488C59.0341 43.1561 58.8734 43.3243 58.6752 43.3243H57.9325C57.777 43.3243 57.6391 43.2194 57.5911 43.0646L56.1428 38.3908C56.0384 38.0538 55.7642 37.9338 55.5421 37.9338C55.5418 37.9338 55.5416 37.9338 55.5413 37.9338C55.3191 37.9341 55.0446 38.0547 54.9409 38.3923L53.5052 43.0637C53.4575 43.219 53.3194 43.3243 53.1635 43.3243H48.4587C48.1198 43.3243 47.9261 43.5606 47.8577 43.7818C47.7894 44.003 47.8143 44.3132 48.089 44.5208L51.9059 47.404C52.0324 47.4995 52.0854 47.6695 52.0371 47.8247L50.5781 52.5091C50.4731 52.8461 50.6277 53.112 50.8075 53.2485C50.9872 53.385 51.2768 53.4565 51.5505 53.2479L55.3565 50.3466C55.4823 50.2507 55.6529 50.2505 55.7788 50.3464L59.5714 53.2304C59.8455 53.4388 60.135 53.3668 60.3146 53.2299C60.4941 53.093 60.6484 52.8268 60.5428 52.4899L59.0813 47.829C59.0327 47.6739 59.0853 47.5037 59.2116 47.4079L63.0187 44.5199C63.2927 44.312 63.3171 44.002 63.2487 43.7811C63.1802 43.5602 62.9864 43.3242 62.648 43.3242H61.9053C61.7071 43.3242 61.5464 43.1561 61.5464 42.9488C61.5464 42.7414 61.7071 42.5733 61.9053 42.5733H62.648C63.2438 42.5733 63.7476 42.9564 63.9314 43.5494C64.1153 44.1424 63.9224 44.7619 63.44 45.1279L59.8449 47.8551L61.2248 52.2558C61.4108 52.8488 61.2194 53.4694 60.7373 53.8369C60.2552 54.2043 59.6319 54.2047 59.1494 53.8378L55.5681 51.1144L51.9732 53.8547C51.7319 54.0387 51.4553 54.1306 51.1786 54.1306Z" fill="#333333"/>
</g>
<mask id="mask3" mask-type="alpha" maskUnits="userSpaceOnUse" x="13" y="19" width="44" height="42">
<rect x="13.571" y="19.4683" width="43.3865" height="41.3355" fill="#C4C4C4"/>
</mask>
<g mask="url(#mask3)">
<path d="M35.3665 26.2499L33.662 27.0448L30.8729 35.3119H22.1956L21.4208 37.6966L28.3937 43.1021L25.7595 51.3692L27.464 53.118L35.3665 48.0305L42.8042 53.118L43.8888 51.3692L41.4096 43.1021L46.8329 38.8095L48.5374 36.7427L46.8329 35.3119H38.9304L37.2259 28.9526L35.3665 26.2499Z" fill="#FFF3BF"/>
<path d="M35.6764 48.5075V27.0448L38.9304 35.3119H46.8329L48.5374 36.4248L47.6077 38.4916L41.0997 43.42L43.7339 52.3231L41.8745 53.277L35.6764 48.5075Z" fill="#FFE680"/>
<path d="M27.7316 53.8085C27.276 53.8085 26.8203 53.6575 26.4226 53.3553C25.6261 52.7501 25.3084 51.7264 25.6135 50.7472L27.8884 43.4432L21.937 38.9477C21.1385 38.3446 20.8184 37.3214 21.1213 36.3411C21.4242 35.3607 22.2562 34.7272 23.241 34.7272H30.5769L32.815 27.4449C33.1165 26.4637 33.948 25.8289 34.9331 25.8276H34.936C35.9199 25.8276 36.7514 26.46 37.055 27.4395L39.3132 34.7272H40.1086C40.4359 34.7272 40.7011 35.0048 40.7011 35.3472C40.7011 35.6895 40.4359 35.9671 40.1086 35.9671H38.8824C38.6256 35.9671 38.398 35.794 38.3187 35.5384L35.9276 27.8219C35.7553 27.2656 35.3025 27.0674 34.9358 27.0674C34.9354 27.0674 34.935 27.0674 34.9345 27.0674C34.5676 27.0679 34.1145 27.267 33.9432 27.8244L31.5729 35.5369C31.4941 35.7933 31.2662 35.9671 31.0088 35.9671H23.241C22.6816 35.9671 22.3617 36.3573 22.2489 36.7224C22.1361 37.0876 22.1771 37.5998 22.6306 37.9425L28.9325 42.7027C29.1413 42.8604 29.2288 43.1412 29.149 43.3974L26.7402 51.1314C26.5669 51.6877 26.8222 52.1267 27.1189 52.3521C27.4156 52.5775 27.8937 52.6955 28.3456 52.3511L34.6293 47.5611C34.837 47.4027 35.1187 47.4024 35.3266 47.5606L41.5882 52.3222C42.0407 52.6662 42.5187 52.5474 42.8152 52.3214C43.1117 52.0954 43.3664 51.6558 43.192 51.0997L40.779 43.4044C40.6988 43.1484 40.7857 42.8674 40.9942 42.7093L47.2797 37.9411C47.7321 37.5979 47.7725 37.086 47.6594 36.7213C47.5464 36.3567 47.2265 35.9671 46.6677 35.9671H45.4415C45.1142 35.9671 44.8489 35.6894 44.8489 35.3471C44.8489 35.0048 45.1142 34.7272 45.4415 34.7272H46.6677C47.6514 34.7272 48.4832 35.3598 48.7867 36.3388C49.0902 37.3178 48.7717 38.3407 47.9753 38.9448L42.0398 43.4476L44.318 50.7131C44.625 51.6921 44.3091 52.7168 43.5131 53.3235C42.7172 53.9302 41.6882 53.9309 40.8915 53.325L34.9787 48.8287L29.0435 53.353C28.6452 53.6567 28.1884 53.8085 27.7316 53.8085Z" fill="#333333"/>
</g>
</g>
</svg>
