<svg width="70" height="66" viewBox="0 0 70 66" fill="none" xmlns="http://www.w3.org/2000/svg">
<mask id="mask0" mask-type="alpha" maskUnits="userSpaceOnUse" x="0" y="0" width="70" height="66">
<rect y="0.322021" width="70" height="65" fill="#C4C4C4"/>
</mask>
<g mask="url(#mask0)">
<path d="M40.0393 53.24H29.7014L31.1203 55.661H38.4176L40.0393 53.24Z" fill="#C1E0E3"/>
<path d="M25.4447 14.7048L31.3231 11.8802L37.6069 10.8715L43.4852 13.4943L47.1339 17.1258L49.769 23.9855L48.7555 29.4329L46.1204 35.082L43.4852 39.1171L42.0663 44.5644H27.269V42.7487L25.4447 38.1083L23.4177 33.8715L20.5798 27.6171L21.5933 20.9592L25.4447 14.7048Z" fill="#FFFAE6"/>
<path d="M35.9852 44.3628V11.6786L42.269 13.0909L46.7284 16.9242L49.5662 24.1874L48.35 31.2488L43.6879 39.1172L42.269 44.3628H35.9852Z" fill="#FFF3BF"/>
<rect x="28.4852" y="44.3628" width="13.1757" height="8.07018" fill="#E6F3F4"/>
<path d="M47.15 16.5318C46.9316 16.2303 46.511 16.1633 46.2102 16.3819C45.9091 16.6002 45.8422 17.0217 46.0605 17.3228C47.757 19.6651 48.654 22.4376 48.654 25.3407C48.654 28.1265 47.831 30.8615 46.2744 33.2504C43.9725 36.7828 42.4373 39.3798 42.0818 43.1466C42.0394 43.5944 41.731 43.952 41.3219 44.0675C41.2949 44.072 41.2679 44.0787 41.242 44.0868C41.1757 44.0998 41.107 44.1068 41.0369 44.1068H28.9631C28.893 44.1068 28.8243 44.0998 28.7577 44.0868C28.7317 44.0787 28.7051 44.0724 28.6777 44.0675C28.269 43.952 27.9602 43.5944 27.9182 43.1466C27.5627 39.3798 26.0275 36.7828 23.7256 33.2504C22.1686 30.8615 21.346 28.1265 21.346 25.3407C21.346 17.8026 27.4713 11.6697 35 11.6697C38.4747 11.6697 41.7849 12.9773 44.322 15.3515C44.5936 15.6056 45.0192 15.5912 45.2733 15.3192C45.5271 15.0476 45.5127 14.6212 45.241 14.3667C42.4541 11.7585 38.8171 10.322 35 10.322C26.7289 10.322 20 17.0592 20 25.3407C20 28.3887 20.8984 31.3784 22.5984 33.9867C24.7905 37.351 26.2518 39.8146 26.5781 43.2733C26.6591 44.1299 27.1709 44.8417 27.888 45.2014V51.5256C27.888 52.3629 28.4152 53.0796 29.1548 53.3596C29.2207 55.0045 30.5775 56.322 32.2362 56.322H37.7638C39.4225 56.322 40.7793 55.0045 40.8452 53.3596C41.5848 53.0796 42.112 52.3633 42.112 51.5256V45.2014C42.8291 44.8417 43.3412 44.1303 43.4219 43.2733C43.7482 39.8146 45.2095 37.351 47.4016 33.9871C49.1016 31.3784 50 28.3887 50 25.3407C50 22.1516 49.0147 19.1053 47.15 16.5318ZM33.4507 48.0722H40.766V49.3016H29.234V48.0722H30.7591C31.131 48.0722 31.4321 47.7704 31.4321 47.3984C31.4321 47.026 31.131 46.7245 30.7591 46.7245H29.234V45.4544H40.766V46.7245H33.4511C33.0792 46.7245 32.7781 47.026 32.7781 47.3984C32.7781 47.7704 33.0792 48.0722 33.4507 48.0722ZM40.1869 52.1373C40.1827 52.1369 40.1789 52.1369 40.1747 52.1369C40.1719 52.1369 40.1691 52.1369 40.1663 52.1369C40.1568 52.1369 40.1473 52.1373 40.1379 52.138H29.8621C29.8527 52.1376 29.8432 52.1373 29.8337 52.1369C29.8267 52.1369 29.8194 52.1369 29.8124 52.1369C29.4906 52.1197 29.2337 51.8519 29.2337 51.5256V50.6492H40.766V51.5256C40.766 51.8523 40.5091 52.1201 40.1869 52.1373ZM37.7638 54.9744H32.2362C31.363 54.9744 30.6382 54.3265 30.5162 53.4856H39.4838C39.3618 54.3265 38.637 54.9744 37.7638 54.9744Z" fill="#333333"/>
</g>
</svg>
