<svg width="70" height="66" viewBox="0 0 70 66" fill="none" xmlns="http://www.w3.org/2000/svg">
<mask id="mask0" mask-type="alpha" maskUnits="userSpaceOnUse" x="0" y="0" width="70" height="66">
<rect y="0.0678711" width="70" height="65" fill="#C4C4C4"/>
</mask>
<g mask="url(#mask0)">
<rect x="15.7426" y="11.8729" width="37.6896" height="44.9153" fill="#E4CDE3"/>
<rect x="15.7426" y="11.8729" width="18.7581" height="44.9153" fill="#F4EBF4"/>
<rect x="19.2702" y="17.6992" width="29.402" height="35.0636" fill="#E6F3F4"/>
<path d="M24.6641 14.4161L25.1929 8.6958H43.3841L44.0186 15.1577H46.0281V18.1238H22.4431V15.1577L24.6641 14.4161Z" fill="#FFF3BF"/>
<path d="M51.66 11.1929H44.64V8.84912C44.64 8.41768 44.2908 8.06787 43.86 8.06787H25.14C24.7092 8.06787 24.36 8.41768 24.36 8.84912V11.1929H17.34C16.0476 11.1929 15 12.2422 15 13.5366V55.7241C15 57.0186 16.0476 58.0679 17.34 58.0679H51.66C52.9524 58.0679 54 57.0186 54 55.7241V13.5366C54 12.2422 52.9524 11.1929 51.66 11.1929ZM25.14 15.8804H40.74V14.3179H25.92V9.63037H43.08V15.0991C43.08 15.5306 43.4292 15.8804 43.86 15.8804H45.42V17.4429H23.58V15.8804H25.14ZM46.2 19.0054C46.6308 19.0054 46.98 18.6556 46.98 18.2241H48.54V52.5991H20.46V18.2241H22.02C22.02 18.6556 22.3692 19.0054 22.8 19.0054H46.2ZM52.44 55.7241C52.44 56.1556 52.0908 56.5054 51.66 56.5054H17.34C16.9092 56.5054 16.56 56.1556 16.56 55.7241V13.5366C16.56 13.1052 16.9092 12.7554 17.34 12.7554H24.36V14.3179H22.8C22.3692 14.3179 22.02 14.6677 22.02 15.0991V16.6616H19.68C19.2492 16.6616 18.9 17.0114 18.9 17.4429V53.3804C18.9 53.8118 19.2492 54.1616 19.68 54.1616H49.32C49.7508 54.1616 50.1 53.8118 50.1 53.3804V17.4429C50.1 17.0114 49.7508 16.6616 49.32 16.6616H46.98V15.0991C46.98 14.6677 46.6308 14.3179 46.2 14.3179H44.64V12.7554H51.66C52.0908 12.7554 52.44 13.1052 52.44 13.5366V55.7241Z" fill="#333333"/>
<path d="M29.04 44.0053H24.36C23.9292 44.0053 23.58 44.3551 23.58 44.7866V49.4741C23.58 49.9055 23.9292 50.2553 24.36 50.2553H29.04C29.4707 50.2553 29.82 49.9055 29.82 49.4741V44.7866C29.82 44.3551 29.4707 44.0053 29.04 44.0053ZM28.26 48.6928H25.14V45.5678H28.26V48.6928Z" fill="#333333"/>
<path d="M32.94 44.7866H31.38V46.3491H32.94V44.7866Z" fill="#333333"/>
<path d="M36.06 44.7866H34.5V46.3491H36.06V44.7866Z" fill="#333333"/>
<path d="M31.7502 27.9746V23.1017H37.0383V27.9746H42.538V34.3306H37.0383V39.839H31.7502L30.6925 34.3306H26.039V27.9746H31.7502Z" fill="#FFFAE6"/>
<path d="M34.1827 39.945V23.4196H37.4614L37.9902 28.5043H42.6437V34.6484L37.4614 35.178V39.945H34.1827Z" fill="#FFF3BF"/>
<path d="M45.42 47.9116H31.38V49.4741H45.42V47.9116Z" fill="#333333"/>
<path d="M43.08 27.5991H38.4V22.9116C38.4 22.4802 38.0507 22.1304 37.62 22.1304H31.38C30.9492 22.1304 30.6 22.4802 30.6 22.9116V27.5991H25.92C25.4892 27.5991 25.14 27.9489 25.14 28.3804V34.6304C25.14 35.0618 25.4892 35.4116 25.92 35.4116H30.6V40.0991C30.6 40.5306 30.9492 40.8804 31.38 40.8804H37.62C38.0507 40.8804 38.4 40.5306 38.4 40.0991V35.4116H43.08C43.5107 35.4116 43.86 35.0618 43.86 34.6304V28.3804C43.86 27.9489 43.5107 27.5991 43.08 27.5991ZM42.3 33.8491H37.62C37.1892 33.8491 36.84 34.1989 36.84 34.6304V39.3179H32.16V34.6304C32.16 34.1989 31.8107 33.8491 31.38 33.8491H26.7V29.1616H31.38C31.8107 29.1616 32.16 28.8118 32.16 28.3804V23.6929H36.84V28.3804C36.84 28.8118 37.1892 29.1616 37.62 29.1616H42.3V33.8491Z" fill="#333333"/>
</g>
</svg>
