<svg width="71" height="66" viewBox="0 0 71 66" fill="none" xmlns="http://www.w3.org/2000/svg">
<mask id="mask0_485_3964" style="mask-type:alpha" maskUnits="userSpaceOnUse" x="0" y="0" width="71" height="66">
<rect x="0.749756" y="0.846191" width="70" height="65" fill="#C4C4C4"/>
</mask>
<g mask="url(#mask0_485_3964)">
<path d="M14.1956 16.9457L35.1019 8.85742L56.4769 16.9457C56.7894 19.3354 57.3956 24.6479 57.3206 26.7802C57.2269 29.4457 54.2269 38.1773 53.0081 41.6699C52.0331 44.464 45.6644 50.2484 42.6019 52.7912L34.6331 57.4787L27.6956 52.7912C25.1019 50.0952 19.1456 43.3979 16.0706 38.1773C12.9956 32.9567 13.5394 21.8476 14.1956 16.9457Z" fill="#F4EBF4"/>
<path d="M57.3514 18.0611C57.1883 16.9995 56.4509 16.0855 55.4272 15.6755L36.4632 8.08108C35.6807 7.7679 34.8189 7.7679 34.0363 8.08108L15.0723 15.6755C14.0486 16.0855 13.3113 16.9995 13.1481 18.0611C12.7499 20.6515 12.0824 27.505 14.4764 35.1782C15.8078 39.4455 17.8941 43.3727 20.6773 46.8505C24.0183 51.0254 28.4025 54.5954 33.7082 57.4611C34.1837 57.7178 34.7167 57.8462 35.2498 57.8462C35.7828 57.8462 36.3159 57.7178 36.7913 57.461C42.0971 54.5953 46.4813 51.0253 49.8223 46.8504C52.6054 43.3726 54.6917 39.4454 56.0231 35.1781C58.4172 27.505 57.7495 20.6515 57.3514 18.0611ZM54.5746 34.7555C51.73 43.8726 45.4988 51.0819 36.0536 56.1836C35.5581 56.4513 34.9421 56.4514 34.4462 56.1836C25.001 51.082 18.7695 43.8726 15.925 34.7555C13.6194 27.3654 14.2617 20.7691 14.6448 18.2761C14.7303 17.7202 15.1159 17.2417 15.6513 17.0275L34.6153 9.43303C34.8199 9.3511 35.0349 9.31008 35.2499 9.31008C35.4648 9.31008 35.6799 9.3511 35.8845 9.43303L54.8485 17.0275C55.3838 17.2418 55.7694 17.7202 55.8547 18.2761C56.238 20.7692 56.8801 27.3655 54.5746 34.7555Z" fill="#333333"/>
<path d="M18.6018 20.1624L35.5706 13.5448L43.7268 16.7617L51.4143 20.1624L52.3518 22.1845V31.4676C52.3518 32.7544 49.0706 39.1882 48.6018 40.7507C48.2268 42.0007 43.6956 46.4186 41.4768 48.4713L34.7268 52.1477C32.3206 50.524 26.8143 46.5779 24.0393 43.7838C20.5706 40.2911 17.8518 30.8242 17.7581 28.7102C17.6831 27.0191 18.2893 22.3071 18.6018 20.1624Z" fill="#E4CDE3"/>
<path d="M46.4456 35.236C47.4768 30.089 45.4456 21.3573 43.4456 17.2213L52.1643 20.8059L52.6331 23.747L52.1643 32.2948L48.9768 39.8316L40.4456 49.4823L35.5706 52.4235L33.7893 50.861C37.0081 47.5216 45.4498 40.206 46.4456 35.236Z" fill="#C99AC6"/>
<path d="M51.5092 19.1135L44.0972 16.1884C43.7101 16.0358 43.2686 16.2152 43.1108 16.5893C42.9531 16.9634 43.1386 17.3905 43.5255 17.5431L50.9376 20.4683C51.3181 20.6184 51.5918 20.9518 51.6521 21.3383C51.9582 23.3007 52.4712 28.4931 50.6293 34.311C48.3573 41.4877 43.377 47.1643 35.8271 51.1832C35.4712 51.3725 35.0289 51.3725 34.673 51.1832C27.123 47.1643 22.1427 41.4878 19.8706 34.311C18.0285 28.4932 18.5416 23.3008 18.8476 21.3383C18.9079 20.9517 19.1817 20.6184 19.5623 20.4683L34.7937 14.4573C35.0835 14.3428 35.4164 14.3427 35.7063 14.4573L40.2808 16.2627C40.6678 16.4152 41.1094 16.2357 41.2671 15.8617C41.4249 15.4876 41.2393 15.0605 40.8525 14.9079L36.2779 13.1025C35.6149 12.8409 34.8849 12.8411 34.2219 13.1025L18.9905 19.1135C18.1189 19.4575 17.4908 20.2264 17.3514 21.1201C17.03 23.1813 16.4909 28.6346 18.4237 34.7393C19.4989 38.1355 21.1837 41.2609 23.4312 44.0286C26.1274 47.3488 29.6642 50.1872 33.9433 52.4649C34.3463 52.6795 34.798 52.7867 35.2499 52.7867C35.7018 52.7866 36.1537 52.6795 36.5566 52.4649C40.8358 50.1873 44.3725 47.3488 47.0687 44.0286C49.3161 41.2609 51.0009 38.1354 52.0761 34.7393C54.0089 28.6345 53.4698 23.1812 53.1483 21.1201C53.0089 20.2263 52.3809 19.4575 51.5092 19.1135Z" fill="#333333"/>
<path d="M37.6331 24.7582H33.1331L32.3831 29.9971H27.8831L27.1331 31.0082V35.5119H31.1643L32.3831 35.9714L33.1331 40.567H37.6331L38.2893 35.5119L43.4456 35.0523V30.4567L38.2893 29.9971L37.6331 24.7582Z" fill="#FFFAE6"/>
<path d="M33.742 41.7187H36.7577C37.8373 41.7187 38.7156 40.8734 38.7156 39.8344V36.6004C38.7156 36.3682 38.9151 36.1792 39.1604 36.1792H42.5309C43.6105 36.1792 44.4888 35.3339 44.4888 34.2949V31.4014C44.4888 30.3623 43.6105 29.517 42.5309 29.517H39.1604C38.9151 29.517 38.7156 29.3281 38.7156 29.0959V25.8618C38.7156 24.8229 37.8374 23.9775 36.7577 23.9775H33.742C32.6624 23.9775 31.784 24.8228 31.784 25.8618V29.0959C31.784 29.328 31.5845 29.517 31.3393 29.517H27.9687C26.8891 29.517 26.0107 30.3623 26.0107 31.4014V34.2949C26.0107 35.2379 26.7427 36.0411 27.7133 36.1633C28.1278 36.216 28.5071 35.9328 28.5612 35.5322C28.6151 35.1315 28.3228 34.7645 27.9086 34.7123C27.6893 34.6847 27.5239 34.5053 27.5239 34.295V31.4015C27.5239 31.1692 27.7235 30.9803 27.9687 30.9803H31.3393C32.4188 30.9803 33.2972 30.135 33.2972 29.096V25.8619C33.2972 25.6298 33.4968 25.4408 33.742 25.4408H36.7577C37.003 25.4408 37.2025 25.6297 37.2025 25.8619V29.096C37.2025 30.135 38.0807 30.9803 39.1603 30.9803H42.5308C42.7761 30.9803 42.9756 31.1691 42.9756 31.4015V34.295C42.9756 34.5271 42.7761 34.7161 42.5308 34.7161H39.1603C38.0807 34.7161 37.2025 35.5614 37.2025 36.6005V39.8345C37.2025 40.0667 37.003 40.2557 36.7577 40.2557H33.742C33.4968 40.2557 33.2972 40.0668 33.2972 39.8345V36.6005C33.2972 35.5615 32.4189 34.7161 31.3393 34.7161C30.9214 34.7161 30.5827 35.0436 30.5827 35.4478C30.5827 35.8519 30.9214 36.1794 31.3393 36.1794C31.5845 36.1794 31.784 36.3683 31.784 36.6006V39.8346C31.7841 40.8734 32.6624 41.7187 33.742 41.7187Z" fill="#333333"/>
</g>
</svg>
