<svg width="70" height="66" viewBox="0 0 70 66" fill="none" xmlns="http://www.w3.org/2000/svg">
<mask id="mask0" mask-type="alpha" maskUnits="userSpaceOnUse" x="0" y="0" width="70" height="66">
<rect y="0.414062" width="70" height="65" fill="#C4C4C4"/>
</mask>
<g mask="url(#mask0)">
<path d="M38.693 17.0966L35.2314 23.8161L33.7314 19.877L31.6545 17.0966L28.3084 15.3587L25.0776 13.9685L20.8084 14.5478L16.6545 15.938L14.693 17.7917L12.1545 22.6575V28.3344L14.693 33.4319L29.5776 46.5234L35.2314 51.0417L38.0006 48.4929L44.9237 42.7002L52.0775 36.2124L56.6929 31.1148L57.9621 24.5112L56.6929 19.877L50.9237 14.5478H44.9237L38.693 17.0966Z" fill="#F4EBF4"/>
<path d="M34.9999 50.8098V22.5415L38.923 16.9806L46.0768 14.0842L51.7307 14.8952L56.923 20.1086L58.1922 26.5964L56.0576 32.0995L46.6538 41.5415L34.9999 50.8098Z" fill="#E4CDE3"/>
<path d="M33.2853 50.7679C13.7171 33.5141 15.0514 34.6965 14.7816 34.4398C14.781 34.4393 14.7803 34.4386 14.7797 34.438C8.56284 28.52 10.4727 18.8451 17.1745 15.0186C17.511 14.8264 17.9409 14.9411 18.1348 15.2745C18.3287 15.6079 18.213 16.034 17.8766 16.2262C11.7642 19.716 10.2213 28.5693 16.0936 33.7439L34.2201 49.7268C34.6648 50.1189 35.3344 50.1178 35.7782 49.7268L41.5851 44.6067C41.8753 44.3509 42.3197 44.3764 42.5778 44.6641C42.8359 44.9516 42.8101 45.392 42.5199 45.6478L36.713 50.7679C35.7349 51.6303 34.2614 51.6286 33.2853 50.7679ZM43.9787 43.4288C43.7206 43.1413 43.7465 42.7008 44.0367 42.4451L53.9047 33.7441C55.9506 31.9401 57.1993 29.6203 57.5159 27.0353C58.2313 21.1901 53.9619 14.8127 46.6366 14.8127C41.4915 14.8127 36.9913 18.4291 35.9364 23.4117C35.7243 24.4132 34.2749 24.4155 34.062 23.412C32.8351 17.6173 26.9506 13.6552 20.7265 15.1104C20.3485 15.1984 19.9699 14.9668 19.8806 14.5921C19.7914 14.2176 20.0256 13.8422 20.4036 13.7539C26.7044 12.2808 32.9084 15.7268 34.9992 21.5759C35.7457 19.4875 37.0643 17.6143 38.8097 16.1936C43.7658 12.1591 51.2203 12.5307 55.6325 17.2395C58.0836 19.8553 59.3583 23.5588 58.912 27.2031C58.5536 30.1303 57.1453 32.7522 54.8395 34.7852L44.9715 43.4861C44.6812 43.742 44.2367 43.7163 43.9787 43.4288Z" fill="#333333"/>
</g>
</svg>
