<svg width="70" height="66" viewBox="0 0 70 66" fill="none" xmlns="http://www.w3.org/2000/svg">
<mask id="mask0" mask-type="alpha" maskUnits="userSpaceOnUse" x="0" y="0" width="70" height="66">
<rect y="0.7052" width="70" height="65" fill="#C4C4C4"/>
</mask>
<g mask="url(#mask0)">
<rect x="12" y="16.7052" width="45" height="33" rx="8" fill="#E6F3F4"/>
<path d="M13.9125 18.273L12.9 21.3613L29.2125 35.038L33.375 37.3542L37.7625 36.5822L54.075 23.7878L56.4375 21.3613L55.425 19.0451L52.725 17.17H16.95L13.9125 18.273Z" fill="#FFFAE6"/>
<path d="M52.0174 16.7052H49.3889C49.0195 16.7052 48.7204 16.9987 48.7204 17.3606C48.7204 17.7224 49.0195 18.0156 49.3889 18.0156H52.0174C53.9715 18.0156 55.5711 19.5306 55.659 21.4256L39.1204 34.9259C36.4436 37.1121 32.5568 37.1121 29.8789 34.9255L13.341 21.425C13.4293 19.5306 15.0288 18.0156 16.9826 18.0156H46.7154C47.0845 18.0156 47.3839 17.7224 47.3839 17.3606C47.3839 16.9987 47.0845 16.7052 46.7154 16.7052H16.9826C14.2354 16.7052 12 18.8968 12 21.5902V37.2215C12 37.5833 12.2994 37.8765 12.6684 37.8765C13.0375 37.8765 13.3366 37.5833 13.3366 37.2215V23.1268L29.0237 35.9326C30.6105 37.2282 32.5551 37.8758 34.5003 37.8758C36.4446 37.8758 38.3898 37.2282 39.976 35.9326L55.6634 23.1271V44.9403C55.6634 46.8451 54.0828 48.3948 52.1396 48.3948H16.8604C14.9172 48.3948 13.3366 46.8451 13.3366 44.9403V39.8426C13.3366 39.4807 13.0375 39.1872 12.6684 39.1872C12.2994 39.1872 12 39.4807 12 39.8426V44.9403C12 47.5678 14.1804 49.7052 16.8604 49.7052H52.1396C54.8196 49.7052 57 47.5678 57 44.9403V21.5902C57 18.8968 54.7646 16.7052 52.0174 16.7052Z" fill="#333333"/>
<path d="M51.8347 46.2313C51.9596 46.3333 52.1114 46.3828 52.2621 46.3828C52.4537 46.3828 52.6439 46.3027 52.7761 46.1468C53.0119 45.8688 52.9735 45.4555 52.6899 45.2242L42.0335 36.5255C41.7499 36.294 41.3283 36.3317 41.0921 36.6097C40.8559 36.8877 40.8943 37.3011 41.1783 37.5326L51.8347 46.2313Z" fill="#333333"/>
<path d="M16.7386 46.3826C16.8893 46.3826 17.0411 46.3331 17.1657 46.2311L27.8224 37.5321C28.106 37.3009 28.1445 36.8875 27.9083 36.6095C27.6724 36.3311 27.2508 36.2934 26.9672 36.525L16.3108 45.224C16.0269 45.4556 15.9884 45.8686 16.2246 46.1466C16.3568 46.3025 16.547 46.3826 16.7386 46.3826Z" fill="#333333"/>
</g>
</svg>
