<svg width="70" height="66" viewBox="0 0 70 66" fill="none" xmlns="http://www.w3.org/2000/svg">
<mask id="mask0" mask-type="alpha" maskUnits="userSpaceOnUse" x="0" y="0" width="70" height="66">
<rect y="0.814819" width="70" height="65" fill="#C4C4C4"/>
</mask>
<g mask="url(#mask0)">
<path d="M53.4112 44.3078H39.7989L39.1067 20.89L41.8753 16.1603L47.1818 14.776L52.0269 17.3139L53.4112 25.389V44.3078Z" fill="#E4CDE3"/>
<path d="M17.3616 26.8887V23.6586H18.2845L21.1684 26.8887H17.3616Z" fill="#E4CDE3"/>
<path d="M28.8398 21.2361L23.8794 26.4273L26.648 26.8887L33.0504 26.4273V20.1402L28.8398 19.7365V21.2361Z" fill="#E4CDE3"/>
<path d="M17.1886 54.9208H14.5353L14.6507 19.9095L17.477 23.1972L17.823 41.0778H33.1081V26.831V19.9095H27.8592L21.4568 13.6224V12.2381L46.0859 11.719L50.1812 12.2381L54.2764 15.6989L56.4105 19.9095L56.6989 54.9208H53.6996L53.2382 19.9095L51.0463 16.6217L47.7009 14.949H44.0671L40.6641 17.5446L39.2221 21.4668V35.0791V54.9208H36.1651V44.3078H35.2999H17.1886V54.9208Z" fill="#F4EBF4"/>
<path d="M19.3227 12.1228L13.3817 18.1215L19.8995 25.6775L23.3602 26.658L28.8975 21.1208L19.3227 12.1228Z" fill="#E6F3F4"/>
<path d="M46.1851 11.1133H24.5431C23.1797 11.1133 21.8516 11.383 20.5805 11.8869L19.5084 10.8148L12 18.3232L13.8803 20.2036C13.7881 20.7768 13.7289 21.3543 13.7289 21.9282V55.8148H18.0664V44.9999H35.3702V55.8148H39.6962V44.9999H52.674V55.8148H57V21.9282C57 15.9649 52.1484 11.1133 46.1851 11.1133ZM19.2654 17.6022H14.76L18.9186 13.4436L19.2654 17.6022ZM19.3858 19.0442L19.5618 21.1538L21.6714 21.3298V25.9557L14.76 19.0442H19.3858ZM27.2721 21.797L23.1134 25.9557V21.4502L27.2721 21.797ZM18.0664 24.3897L19.9309 26.2541H18.0664V24.3897ZM29.9008 21.2072L29.1798 20.4862H32.4863V26.2541H24.8538L29.9008 21.2072ZM20.897 19.8186L20.3902 13.7363L26.9793 20.3254L20.897 19.8186ZM16.6244 43.558V54.3728H15.1702V21.9282C15.1702 21.7905 15.1846 21.6521 15.1911 21.5143L16.6244 22.9477V26.2541C16.6244 27.0494 17.2712 27.6961 18.0664 27.6961H32.4863C33.2815 27.6961 33.9283 27.0494 33.9283 26.2541V20.4862C33.9283 19.691 33.2815 19.0442 32.4863 19.0442H27.7378L21.6988 13.0052C22.6195 12.7089 23.5719 12.5553 24.5431 12.5553H40.8123C37.5664 14.4234 35.3702 17.9209 35.3702 21.9282V43.558H16.6244ZM39.6962 43.558V21.9282C39.6962 18.3506 42.6076 15.4393 46.1851 15.4393C49.7627 15.4393 52.674 18.3506 52.674 21.9282V43.558H39.6962ZM55.558 54.3728H54.116V21.9282C54.116 17.5554 50.5579 13.9973 46.1851 13.9973C41.8123 13.9973 38.2542 17.5554 38.2542 21.9282V54.3728H36.8122V21.9282C36.8122 16.7601 41.017 12.5553 46.1851 12.5553C51.3532 12.5553 55.558 16.7601 55.558 21.9282V54.3728Z" fill="#333333"/>
<rect x="17.4769" y="30.234" width="15.3427" height="11.1321" fill="#FFFAE6"/>
<path d="M32.4863 29.1381H18.0664C17.2712 29.1381 16.6244 29.7848 16.6244 30.58V40.6739C16.6244 41.4692 17.2712 42.1159 18.0664 42.1159H32.4863C33.2815 42.1159 33.9282 41.4692 33.9282 40.6739V30.58C33.9282 29.7848 33.2815 29.1381 32.4863 29.1381ZM18.0664 40.6739V30.58H32.4863L32.487 40.6739H18.0664Z" fill="#333333"/>
<path d="M46.1851 16.8812V18.3232C48.1729 18.3232 49.7901 19.9404 49.7901 21.9282V23.3702H51.2321V21.9282C51.2321 19.1451 48.9681 16.8812 46.1851 16.8812Z" fill="#333333"/>
<path d="M49.7901 24.8121H51.2321V26.2541H49.7901V24.8121Z" fill="#333333"/>
<path d="M49.7901 27.696H51.2321V29.138H49.7901V27.696Z" fill="#333333"/>
</g>
</svg>
