<svg width="70" height="66" viewBox="0 0 70 66" fill="none" xmlns="http://www.w3.org/2000/svg">
<mask id="mask0" mask-type="alpha" maskUnits="userSpaceOnUse" x="0" y="0" width="70" height="66">
<rect y="0.679199" width="70" height="65" fill="#C4C4C4"/>
</mask>
<g mask="url(#mask0)">
<path d="M17.56 34.0333H10.81V48.2492L11.485 49.8895H16.885L18.37 48.2492L17.56 34.0333Z" fill="#E6F3F4"/>
<path d="M18.64 46.8822V36.7671H21.745H25.39L29.71 33.7599L40.78 35.9469L45.1 37.9973L45.775 40.7311L48.475 40.0477L55.4949 33.0764L56.8449 33.7599L57.5199 36.7671H60.3549L62.5149 37.9973L63.3249 40.7311L61.2999 42.6448L53.6049 45.2419L44.155 48.5225L37.27 49.8894L29.035 46.8822L24.175 46.1988L18.64 46.8822Z" fill="#FFFAE6"/>
<path d="M55.495 32.8715L51.7825 37.8607V38.2024L52.8625 38.7492L58.465 36.4254L57.385 33.4182L55.495 32.8715Z" fill="#FFF3BF"/>
<path d="M14.995 50.1628V34.3066H17.695L18.505 43.0549L17.695 49.4793L14.995 50.1628Z" fill="#C1E0E3"/>
<path d="M24.58 27.8822L27.82 34.7167L31.6 34.0333L43.75 36.4937L45.775 38.4074L46.585 41.1412L49.69 39.3642L56.845 30.0692V23.508L54.55 18.4505L47.26 15.0332L43.75 17.767L41.05 21.8678L36.73 16.4001H29.98L24.58 20.5008V27.8822Z" fill="#F4EBF4"/>
<path d="M45.235 37.9974V16.1268H49.285L54.8199 18.0405L57.2499 24.465L56.5749 29.5225L54.8199 33.3499L50.2299 39.0909L45.235 40.5945V37.9974Z" fill="#E4CDE3"/>
<path d="M63.3652 37.5654C62.3494 35.9729 60.4035 35.3249 58.6661 35.9708C58.8019 35.2929 58.7081 34.5836 58.3879 33.9587C57.9459 33.0957 57.1505 32.5322 56.2664 32.364C56.6922 31.4889 57.0469 30.5955 57.3175 29.6937C57.4357 29.3 57.2631 28.8632 56.8911 28.6976C56.4472 28.5002 55.9479 28.7435 55.8122 29.1986C54.6264 33.1801 51.6872 37.0067 47.8653 39.5941L46.5683 40.0279C46.6037 39.8763 46.6292 39.7212 46.6441 39.5631C46.7126 38.8438 46.5487 38.1146 46.1746 37.4993C45.645 36.6283 44.7887 36.0635 43.8071 35.9232C40.8823 35.5054 37.9526 34.7766 35.0618 34.176C32.3989 33.6232 30.74 33.3117 30.1482 33.3491C29.4062 33.3973 28.7228 33.6416 28.0858 33.9744C28.0136 33.8684 27.9414 33.7624 27.8719 33.6552C26.0657 30.8726 25.1349 27.854 25.1797 24.9257C25.2218 22.1809 26.476 19.718 28.7113 17.9908C30.1379 16.8884 31.9144 16.2814 33.7134 16.2814C36.7692 16.2814 39.0738 18.2908 40.0364 21.7943C40.141 22.1752 40.5072 22.4272 40.9053 22.3736C41.2225 22.3309 41.4804 22.0854 41.5668 21.7734C42.5327 18.2828 44.8342 16.2814 47.8838 16.2814C49.683 16.2814 51.4594 16.8885 52.886 17.9908C55.1211 19.718 56.3753 22.1809 56.4176 24.9256C56.4215 25.1845 56.4181 25.4465 56.4071 25.7046C56.3899 26.1099 56.657 26.4852 57.0513 26.5574C57.5321 26.6454 57.9652 26.2843 57.9865 25.8057C57.9999 25.5062 58.0044 25.2019 57.9998 24.9009C57.9499 21.6548 56.4747 18.7484 53.8459 16.7172C52.1452 15.403 50.0278 14.6792 47.8838 14.6792C44.7786 14.6792 42.2383 16.3805 40.7987 19.3271C39.3591 16.3805 36.8188 14.6792 33.7137 14.6792C31.5697 14.6792 29.4523 15.403 27.7515 16.7171C25.1226 18.7484 23.6475 21.6548 23.5977 24.9009C23.5478 28.1517 24.5686 31.4832 26.5496 34.5353C26.6115 34.6305 26.6757 34.7251 26.7397 34.8195C26.5437 34.9587 26.3517 35.099 26.1644 35.2365C25.1932 35.9484 23.9073 36.5596 22.6846 36.6077C22.3141 36.6222 19.1785 36.3758 19.1785 35.9967V35.3748C19.1785 34.0234 18.0966 32.9279 16.7619 32.9279H12.4166C11.0819 32.9279 10 34.0234 10 35.3747V36.6018C10 37.0405 10.3339 37.423 10.7669 37.4361C11.2151 37.4497 11.5824 37.086 11.5824 36.6353V35.3748C11.5824 34.9084 11.9558 34.5301 12.4166 34.5301H16.7619C17.2226 34.5301 17.596 34.9083 17.596 35.3747V48.2323C17.596 48.6987 17.2226 49.077 16.7618 49.077H12.4165C11.9558 49.077 11.5824 48.6989 11.5824 48.2324V40.4291C11.5824 39.9904 11.2485 39.6079 10.8155 39.5947C10.3673 39.5811 10 39.9448 10 40.3954V48.2323C10 49.5837 11.0819 50.6792 12.4166 50.6792H16.7619C18.0965 50.6792 19.1784 49.5837 19.1784 48.2324V47.2143L24.8161 46.8812C24.823 46.8808 24.8302 46.8802 24.8373 46.8796C26.0652 46.7735 27.3248 46.9453 28.4809 47.3763C34.4647 49.608 34.5861 49.6531 34.5877 49.6537C35.8254 50.1153 37.0208 50.3013 38.1843 50.3013C40.6582 50.3012 42.9865 49.4599 45.2619 48.6376C45.7796 48.4505 46.3151 48.2571 46.8432 48.0769C49.1682 47.2837 51.5662 46.5627 53.8854 45.8655C56.4545 45.0931 61.7579 43.3659 61.7877 43.3511C63.0567 42.7198 63.5561 41.9202 63.857 40.8163C64.1581 39.7123 63.9789 38.5273 63.3652 37.5654ZM55.4036 33.9474C56.0287 33.8082 56.6803 34.1049 56.9834 34.6964C57.1773 35.0749 57.1973 35.5184 57.0386 35.9132C56.8798 36.3081 56.5594 36.6112 56.1499 36.7482L52.0799 38.1691C53.3711 36.8809 54.4938 35.4535 55.4036 33.9474ZM62.3317 40.3899C62.2986 40.5115 62.2562 40.6296 62.2054 40.743C61.9352 41.3471 61.4106 41.7966 60.7906 42.0105C58.3599 42.8487 55.8582 43.6008 53.4349 44.3294C51.1023 45.0307 48.6901 45.7559 46.338 46.5584C45.7964 46.7431 45.2543 46.9391 44.7299 47.1286C41.5085 48.2927 38.4658 49.3924 35.1341 48.1499C35.0994 48.137 29.0278 45.8728 29.0278 45.8728C27.9191 45.4593 26.7302 45.2468 25.546 45.2468C25.2678 45.2468 24.9898 45.2586 24.7132 45.2822L19.1783 45.6094V37.6743C21.4985 38.3683 24.0928 38.6935 26.6784 36.8356C27.739 36.0736 28.8902 35.0363 30.2492 34.9482C30.7473 34.9159 33.6486 35.5183 34.7422 35.7455C37.6637 36.3522 40.5967 36.9167 43.5239 37.5C43.5424 37.5037 43.5612 37.5067 43.58 37.509C45.7798 37.7705 45.3572 41.2895 43.114 40.987C43.1071 40.986 43.1 40.9851 43.0929 40.9844L36.1023 40.2336C35.6355 40.1826 35.2178 40.5576 35.2278 41.0503C35.2361 41.4577 35.5625 41.7869 35.9627 41.8298L42.9159 42.5766C43.3907 42.6392 43.8633 42.5984 44.3085 42.461C44.3483 42.4543 59.0615 37.535 59.085 37.5259C60.1601 37.0569 61.4005 37.4387 62.0357 38.4348C62.405 39.0132 62.5128 39.7259 62.3317 40.3899Z" fill="#333333"/>
</g>
</svg>
