<svg width="100" height="93" viewBox="0 0 100 93" fill="none" xmlns="http://www.w3.org/2000/svg">
<mask id="mask0" mask-type="alpha" maskUnits="userSpaceOnUse" x="0" y="0" width="100" height="93">
<rect width="100" height="92.8571" fill="#C4C4C4"/>
</mask>
<g mask="url(#mask0)">
<ellipse cx="74.7599" cy="77.8314" rx="5.34296" ry="4.92711" fill="#E4CDE3"/>
<ellipse cx="31.9512" cy="14.095" rx="3.97464" ry="2.08452" fill="#FFF3BF"/>
<ellipse cx="52.4107" cy="14.095" rx="3.97464" ry="2.08452" fill="#FFF3BF"/>
<path d="M43.6146 67.7246H40.3567L39.8354 72.02V74.9257L42.4418 79.0948L48.1757 82.0006H52.7367L57.6888 79.0948L60.4254 74.9257V67.7246L61.7285 62.2921C62.9448 61.6604 65.5859 60.3213 66.4199 60.0181C67.254 59.7149 69.7213 60.8182 70.8507 61.4078L72.4145 67.7246V72.6517L77.2362 72.02V67.7246L76.324 61.4078L70.8507 56.607L67.5928 55.7226L61.7285 56.607L56.9069 62.2921L55.9946 72.02L54.6915 76.1891L48.1757 77.7051L44.6571 74.1677L43.6146 67.7246Z" fill="#C1E0E3"/>
<path d="M21.4606 32.8555L23.285 33.7399L26.6732 43.8468L31.3646 49.1529L38.4017 51.5533H45.1781L52.8668 48.2685L58.4704 41.8254L59.9038 32.8555H62.6405L64.074 35.6349L62.6405 43.8468L56.6459 51.5533L47.9148 55.596L44.0053 56.9857V67.8507H42.5718H39.8352V65.1976V56.9857L37.7501 56.2277L28.237 52.3113L22.5031 45.4892L19.5059 35.0032L21.4606 32.8555Z" fill="#E6F3F4"/>
<path d="M74.6937 76.6685C74.0747 76.6685 73.5713 77.1566 73.5713 77.7567C73.5713 78.3568 74.0747 78.8449 74.6937 78.8449C75.3127 78.8449 75.8162 78.3568 75.8162 77.7567C75.8162 77.1566 75.3127 76.6685 74.6937 76.6685ZM78.0611 72.106V65.8246C78.0611 63.6414 77.4095 61.5241 76.1764 59.7015C75.8365 59.1991 75.1409 59.0589 74.6222 59.3884C74.1038 59.7179 73.9592 60.3926 74.2992 60.895C75.2916 62.362 75.8162 64.0667 75.8162 65.8246V71.3201C75.4509 71.2605 75.0763 71.2277 74.6937 71.2277C74.3112 71.2277 73.9366 71.2605 73.5713 71.3201V65.8246C73.5713 62.0541 70.4078 58.9865 66.5193 58.9865C62.6301 58.9865 59.4658 62.0541 59.4658 65.8246V72.104C59.4658 77.0738 55.2947 81.117 50.1675 81.117C45.0412 81.117 40.8706 77.0738 40.8706 72.104V68.8668C41.2189 68.9878 41.6114 69.0542 41.9959 69.0542C42.3837 69.0542 42.7601 68.9878 43.1155 68.8661V72.104C43.1155 75.8737 46.279 78.9406 50.1675 78.9406C54.0567 78.9406 57.2209 75.8737 57.2209 72.104V65.8246C57.2209 60.8541 61.3921 56.8102 66.5193 56.8102C68.0408 56.8102 69.5507 57.1759 70.8858 57.868C71.4326 58.1512 72.1126 57.9514 72.4048 57.4214C72.6971 56.8914 72.4907 56.2321 71.9442 55.9488C70.2846 55.0887 68.4088 54.634 66.5193 54.634C60.1544 54.634 54.976 59.654 54.976 65.8247V72.1042C54.976 74.6738 52.819 76.7644 50.1675 76.7644C47.5169 76.7644 45.3604 74.6738 45.3604 72.1042V57.2419C56.8353 55.637 65.4148 46.0767 65.4148 34.7698C65.4148 33.4017 64.4913 32.1379 63.1699 31.6895V21.2444C63.1699 17.4962 60.6039 14.274 56.9557 13.2838C56.58 11.4151 54.8794 10 52.8434 10H50.5985C48.2879 10 46.408 11.8225 46.408 14.0625C46.408 16.3025 48.2879 18.125 50.5985 18.125H52.8434C54.6302 18.125 56.1585 17.0348 56.76 15.505C59.2262 16.3555 60.925 18.6258 60.925 21.2444V31.6948C59.617 32.1515 58.6849 33.3859 58.68 34.8258C58.6488 43.7151 51.163 50.9472 41.9931 50.9472C38.1411 50.9472 34.3805 49.6388 31.4037 47.2633C30.9253 46.8814 30.2178 46.9477 29.8238 47.4117C29.4297 47.8757 29.4983 48.5615 29.9769 48.9434C33.3542 51.639 37.6216 53.1236 41.9929 53.1236C52.3967 53.1236 60.8894 44.9185 60.9247 34.8332C60.9268 34.2306 61.4008 33.7148 61.9812 33.6834C62.6163 33.649 63.1698 34.1517 63.1698 34.7698C63.1698 45.1676 55.1458 53.9317 44.5051 55.156C43.7128 55.2471 43.1154 55.8974 43.1154 56.6685V65.7896C43.1188 66.4004 42.5664 66.9052 41.9371 66.8764C41.3489 66.8496 40.8705 66.3344 40.8705 65.7281V56.6685C40.8705 55.8974 40.273 55.2471 39.4807 55.156C28.8402 53.9317 20.8162 45.1676 20.8162 34.7698C20.8162 34.1524 21.369 33.649 22.0046 33.6834C22.5852 33.7147 23.0591 34.2305 23.0612 34.8332C23.074 38.4771 24.1907 41.9973 26.2906 45.0134C26.6374 45.5115 27.3348 45.6426 27.849 45.3066C28.3628 44.9704 28.4982 44.294 28.1515 43.7958C26.3014 41.1386 25.3174 38.0369 25.3061 34.8259C25.3012 33.3861 24.3693 32.1517 23.0611 31.6949V21.2444C23.0611 18.6258 24.7599 16.3555 27.2261 15.505C27.8276 17.0348 29.3559 18.125 31.1427 18.125H33.3876C35.6982 18.125 37.5781 16.3025 37.5781 14.0625C37.5781 11.8225 35.6982 10 33.3876 10H31.1427C29.1067 10 27.4062 11.4151 27.0304 13.2838C23.3823 14.274 20.8162 17.4962 20.8162 21.2444V31.6898C19.4932 32.1392 18.5713 33.4054 18.5713 34.7698C18.5713 46.0767 27.1508 55.637 38.6257 57.2419V72.104C38.6257 78.2738 43.8033 83.2933 50.1675 83.2933C56.5324 83.2933 61.7107 78.2738 61.7107 72.104V65.8246C61.7107 63.2542 63.8678 61.1628 66.5193 61.1628C69.1699 61.1628 71.3264 63.2542 71.3264 65.8246V72.106C69.3154 73.2367 67.959 75.3453 67.959 77.7567C67.959 81.3568 70.9802 84.2857 74.6937 84.2857C78.4072 84.2857 81.4284 81.3568 81.4284 77.7567C81.4284 75.3453 80.0721 73.2367 78.0611 72.106ZM52.8434 15.9487H50.5985C49.5257 15.9487 48.6529 15.1025 48.6529 14.0625C48.6529 13.0225 49.5257 12.1763 50.5985 12.1763H52.8434C53.9162 12.1763 54.789 13.0225 54.789 14.0625C54.789 15.1025 53.9162 15.9487 52.8434 15.9487ZM31.1427 12.1763H33.3876C34.4604 12.1763 35.3332 13.0225 35.3332 14.0625C35.3332 15.1025 34.4604 15.9487 33.3876 15.9487H31.1427C30.07 15.9487 29.1971 15.1025 29.1971 14.0625C29.1971 13.0225 30.07 12.1763 31.1427 12.1763ZM74.6937 82.1094C72.2181 82.1094 70.2039 80.1568 70.2039 77.7567C70.2039 75.3566 72.2181 73.404 74.6937 73.404C77.1694 73.404 79.1835 75.3566 79.1835 77.7567C79.1835 80.1568 77.1694 82.1094 74.6937 82.1094Z" fill="#333333"/>
</g>
</svg>
